<svg xmlns="http://www.w3.org/2000/svg" xmlns:xlink="http://www.w3.org/1999/xlink" width="500" zoomAndPan="magnify" viewBox="0 0 375 374.999991" height="500" preserveAspectRatio="xMidYMid meet" version="1.2"><defs><clipPath id="099b3af2a2"><path d="M 42 4.257812 L 194 4.257812 L 194 273.507812 L 42 273.507812 Z M 42 4.257812 "/></clipPath><clipPath id="371f4ceb33"><path d="M 39.402344 24 L 45 24 L 45 31 L 39.402344 31 Z M 39.402344 24 "/></clipPath><clipPath id="581ec8db6d"><path d="M 80.386719 110.621094 L 294.886719 110.621094 L 294.886719 243 L 80.386719 243 Z M 80.386719 110.621094 "/></clipPath></defs><g id="f79e67cc04"><rect x="0" width="375" y="0" height="374.999991" style="fill:#ffffff;fill-opacity:1;stroke:none;"/><rect x="0" width="375" y="0" height="374.999991" style="fill:#ffffff;fill-opacity:1;stroke:none;"/><path style=" stroke:none;fill-rule:nonzero;fill:#0f50aa;fill-opacity:1;" d="M 55.472656 20.1875 L 55.460938 20.1875 C 55.453125 20.1875 55.445312 20.191406 55.4375 20.195312 L 55.488281 20.242188 L 55.496094 20.25 L 55.507812 20.257812 C 55.496094 20.234375 55.484375 20.210938 55.472656 20.1875 Z M 55.472656 20.1875 "/><g clip-rule="nonzero" clip-path="url(#099b3af2a2)"><path style=" stroke:none;fill-rule:nonzero;fill:#0f50aa;fill-opacity:1;" d="M 78.859375 6.8125 C 78.980469 6.84375 79.097656 6.886719 79.203125 6.945312 C 80.058594 8.089844 80.839844 9.300781 81.667969 10.574219 C 83.117188 12.808594 84.617188 15.113281 86.546875 17.117188 C 88.628906 19.28125 91.050781 21.015625 93.394531 22.695312 C 93.6875 22.90625 93.972656 23.113281 94.257812 23.316406 C 91.855469 22.507812 89.582031 21.738281 87.402344 20.753906 C 86.113281 20.171875 84.863281 19.480469 83.539062 18.746094 C 82.28125 18.042969 80.976562 17.320312 79.609375 16.683594 C 78.332031 16.09375 77.058594 15.734375 75.585938 15.320312 L 75.511719 15.296875 C 75.632812 14.496094 75.765625 13.621094 75.898438 12.746094 C 75.949219 12.421875 75.941406 12.097656 75.875 11.777344 C 75.808594 11.453125 75.691406 11.15625 75.515625 10.875 C 75.34375 10.597656 75.125 10.359375 74.867188 10.160156 C 74.605469 9.957031 74.316406 9.8125 74.003906 9.714844 L 73.613281 9.589844 C 73.273438 9.484375 72.925781 9.445312 72.570312 9.472656 C 72.21875 9.5 71.882812 9.59375 71.5625 9.753906 C 71.246094 9.914062 70.96875 10.125 70.734375 10.394531 C 70.496094 10.660156 70.320312 10.960938 70.203125 11.296875 C 69.699219 12.722656 69.195312 14.15625 68.640625 15.722656 C 66.433594 13.320312 63.84375 11.292969 59.867188 10.941406 C 63.585938 8.414062 68.109375 7.984375 72.863281 7.539062 C 74.824219 7.351562 76.855469 7.160156 78.859375 6.8125 M 56.542969 15.527344 L 57.765625 16.996094 L 56.824219 17.226562 L 56.273438 16.148438 C 56.367188 15.9375 56.457031 15.730469 56.542969 15.527344 M 93.660156 29.640625 C 95.519531 29.640625 97.183594 30.332031 98.890625 31.820312 C 99.273438 32.152344 99.714844 32.363281 100.214844 32.453125 C 100.714844 32.542969 101.203125 32.496094 101.675781 32.3125 C 102.148438 32.132812 102.542969 31.839844 102.855469 31.441406 C 103.167969 31.042969 103.355469 30.589844 103.414062 30.085938 L 103.457031 29.738281 C 105.625 31.191406 107.578125 32.742188 108.9375 34.917969 C 109.871094 36.414062 111.453125 37.179688 112.726562 37.796875 C 113.105469 37.980469 113.46875 38.15625 113.769531 38.328125 C 113.910156 38.40625 114.050781 38.488281 114.191406 38.566406 C 114.671875 38.839844 115.140625 39.109375 115.605469 39.386719 C 115.335938 39.644531 115.128906 39.941406 114.980469 40.285156 C 114.832031 40.625 114.757812 40.984375 114.757812 41.355469 C 114.753906 41.730469 114.824219 42.085938 114.96875 42.429688 C 115.113281 42.773438 115.316406 43.074219 115.582031 43.335938 C 117.605469 45.308594 119.640625 47.296875 121.84375 49.445312 L 121.199219 49.785156 C 120.726562 50.039062 120.355469 50.398438 120.09375 50.867188 C 119.828125 51.335938 119.714844 51.835938 119.746094 52.375 C 119.777344 52.910156 119.953125 53.394531 120.269531 53.828125 C 120.585938 54.265625 120.996094 54.578125 121.496094 54.769531 L 121.808594 54.890625 C 123.933594 55.707031 125.171875 56.261719 125.84375 56.980469 C 125.648438 57.03125 125.460938 57.101562 125.28125 57.191406 C 125.101562 57.28125 124.933594 57.390625 124.777344 57.515625 C 124.625 57.644531 124.484375 57.789062 124.359375 57.945312 C 124.234375 58.105469 124.128906 58.273438 124.042969 58.453125 C 123.957031 58.636719 123.890625 58.824219 123.84375 59.019531 C 123.800781 59.214844 123.777344 59.414062 123.773438 59.613281 C 123.773438 59.816406 123.792969 60.015625 123.832031 60.210938 C 123.875 60.40625 123.9375 60.597656 124.019531 60.78125 C 125.3125 63.613281 126.960938 66.476562 131.578125 67.6875 C 132.488281 67.925781 133.757812 69.628906 134.777344 70.996094 C 135.308594 71.710938 135.859375 72.449219 136.445312 73.128906 C 137.007812 73.777344 137.53125 74.519531 138.085938 75.308594 C 139.0625 76.699219 140.074219 78.136719 141.484375 79.332031 C 145.265625 82.527344 146.648438 85.644531 145.941406 89.542969 L 143.183594 90.019531 L 142.976562 90.054688 C 142.417969 90.152344 141.933594 90.398438 141.527344 90.792969 C 141.121094 91.1875 140.863281 91.664062 140.753906 92.21875 C 140.640625 92.777344 140.699219 93.3125 140.917969 93.835938 C 141.140625 94.355469 141.492188 94.769531 141.972656 95.074219 C 146.132812 97.722656 148.425781 99.179688 150.929688 99.179688 C 152.601562 99.179688 153.972656 98.542969 155.53125 97.476562 C 156.265625 99.1875 156.953125 100.816406 157.429688 102.449219 C 158.28125 105.386719 159.074219 108.40625 159.84375 111.332031 C 160.84375 115.136719 161.878906 119.074219 163.066406 122.921875 C 163.625 124.734375 164.609375 126.246094 165.558594 127.710938 C 166.074219 128.472656 166.546875 129.257812 166.980469 130.066406 C 167.820312 131.722656 168.605469 133.472656 169.367188 135.164062 C 169.847656 136.234375 170.34375 137.339844 170.859375 138.433594 C 170.960938 138.644531 171.066406 138.894531 171.175781 139.160156 C 171.617188 140.226562 172.167969 141.550781 173.347656 142.472656 C 176.90625 145.253906 179.648438 148.183594 181.730469 151.4375 C 183.960938 154.917969 185.394531 158.699219 186.027344 162.785156 C 186.332031 164.652344 186.980469 166.363281 187.613281 168.015625 C 188.128906 169.371094 188.617188 170.652344 188.871094 171.90625 C 189.613281 175.632812 189.953125 179.488281 190.257812 183.4375 C 190.328125 184.667969 190.335938 185.894531 190.28125 187.125 C 190.222656 189.351562 190.160156 191.652344 190.726562 193.949219 C 191.519531 197.179688 190.683594 200.3125 189.800781 203.628906 C 189.308594 205.480469 188.796875 207.394531 188.550781 209.40625 C 187.898438 214.660156 186.320312 219.75 184.101562 223.738281 C 181.214844 228.933594 177.640625 234.691406 173.011719 238.019531 C 172.304688 238.527344 171.601562 239.03125 170.902344 239.53125 C 167.359375 242.0625 163.695312 244.679688 160.144531 247.652344 C 156.386719 250.796875 150.996094 252.554688 145.785156 254.257812 C 144.019531 254.832031 142.195312 255.429688 140.4375 256.074219 C 138.183594 256.902344 135.871094 257.535156 133.421875 258.203125 C 130.539062 258.988281 127.554688 259.800781 124.6875 260.964844 C 120.273438 262.753906 115.960938 264.886719 111.792969 266.945312 C 109.761719 267.949219 107.660156 268.988281 105.585938 269.964844 C 105.507812 270.003906 105.429688 270.039062 105.347656 270.078125 C 105.09375 270.199219 104.664062 270.40625 104.394531 270.496094 C 102.929688 270.023438 101.445312 269.542969 100.007812 269.078125 C 92.683594 266.71875 85.113281 264.273438 77.855469 261.484375 C 73.5625 259.835938 71.332031 255.558594 69.558594 251.183594 C 67.871094 247.023438 66.242188 242.757812 64.871094 239.132812 C 64.519531 238.210938 64.507812 237.894531 64.519531 237.796875 C 65.515625 228.8125 63.226562 220.25 57.515625 211.617188 C 57.324219 211.324219 57.242188 210.347656 57.1875 209.699219 C 57.152344 209.328125 57.121094 208.945312 57.070312 208.550781 C 56.652344 205.363281 56.246094 202.113281 55.851562 198.96875 C 55.492188 196.101562 55.121094 193.140625 54.742188 190.226562 C 54.644531 189.589844 54.488281 188.964844 54.277344 188.355469 C 54.203125 188.121094 54.101562 187.796875 54.050781 187.582031 C 56.589844 181.835938 55.058594 176.542969 53.707031 171.867188 C 53.183594 170.046875 52.683594 168.328125 52.410156 166.617188 C 52.316406 166.027344 52.414062 165.242188 52.519531 164.410156 C 52.597656 163.765625 52.683594 163.101562 52.703125 162.390625 C 52.734375 161.214844 52.746094 159.847656 52.472656 158.492188 C 51.730469 154.789062 50.949219 151.035156 50.191406 147.402344 C 49.359375 143.414062 48.511719 139.351562 47.703125 135.273438 L 47.753906 135.273438 C 48.132812 135.273438 48.496094 135.195312 48.847656 135.046875 C 51.035156 134.09375 52.695312 133.371094 54.199219 132.71875 L 54.617188 132.535156 C 54.882812 132.421875 55.125 132.265625 55.339844 132.074219 C 55.558594 131.882812 55.738281 131.664062 55.886719 131.414062 C 56.03125 131.164062 56.136719 130.898438 56.199219 130.617188 C 56.261719 130.335938 56.28125 130.050781 56.253906 129.761719 C 56.234375 129.558594 56.226562 129.386719 56.21875 129.226562 C 56.195312 128.652344 56.152344 127.582031 55.1875 126.78125 L 55.171875 126.765625 C 53.253906 125.203125 52.359375 123.574219 52.265625 121.476562 C 52.179688 119.421875 52.851562 117.175781 53.566406 114.804688 C 54.03125 113.257812 54.511719 111.660156 54.773438 110.070312 C 55.851562 103.632812 57.894531 97.152344 59.871094 90.886719 C 60.652344 88.40625 61.460938 85.84375 62.207031 83.300781 C 62.875 81.011719 63.980469 77.230469 60.523438 73.933594 C 60.480469 73.386719 60.570312 72.082031 61.109375 70.269531 C 61.675781 68.347656 62.355469 67.1875 62.667969 66.820312 C 69.5625 64.65625 71.40625 58.699219 72.886719 53.898438 L 73.042969 53.40625 C 73.433594 52.148438 73.589844 50.914062 73.742188 49.71875 C 73.820312 49.105469 73.894531 48.527344 73.996094 47.976562 C 74.539062 45.0625 75.542969 39.703125 70.113281 36.613281 C 71.921875 35.292969 73.675781 34.011719 75.515625 32.671875 L 78.429688 30.546875 C 78.632812 30.398438 78.8125 30.222656 78.96875 30.023438 C 79.316406 30.542969 79.609375 31.089844 79.851562 31.664062 C 79.988281 32 80.1875 32.296875 80.441406 32.554688 C 80.699219 32.808594 80.996094 33.007812 81.328125 33.148438 C 81.664062 33.285156 82.011719 33.355469 82.375 33.359375 C 82.738281 33.359375 83.085938 33.289062 83.421875 33.152344 C 84.316406 32.789062 85.207031 32.382812 86.066406 31.992188 C 88.734375 30.78125 91.25 29.640625 93.660156 29.640625 M 78.835938 4.257812 C 78.734375 4.257812 78.632812 4.265625 78.535156 4.28125 C 70.96875 5.617188 62.667969 4.59375 56.445312 10.425781 C 55.148438 11.636719 54.628906 13.679688 53.8125 15.398438 C 53.777344 15.472656 53.71875 15.507812 53.636719 15.507812 C 53.578125 15.507812 53.527344 15.484375 53.488281 15.441406 L 53.476562 15.425781 C 53.4375 15.378906 53.390625 15.355469 53.332031 15.355469 C 53.257812 15.351562 53.199219 15.382812 53.160156 15.445312 C 53.125 15.507812 53.121094 15.574219 53.152344 15.636719 L 53.953125 17.210938 L 55.402344 20.050781 C 55.4375 20.121094 55.496094 20.15625 55.574219 20.15625 C 55.589844 20.15625 55.605469 20.152344 55.621094 20.148438 C 57.609375 19.660156 59.613281 19.164062 62.023438 18.566406 C 62.09375 18.546875 62.136719 18.507812 62.160156 18.4375 C 62.183594 18.371094 62.171875 18.308594 62.125 18.253906 C 60.820312 16.683594 59.777344 15.429688 58.382812 13.753906 C 58.332031 13.691406 58.324219 13.621094 58.359375 13.546875 C 58.390625 13.472656 58.453125 13.4375 58.535156 13.4375 L 58.613281 13.4375 C 63.863281 13.4375 66.328125 16.859375 69.347656 20.5 C 69.386719 20.546875 69.4375 20.570312 69.496094 20.570312 C 69.589844 20.570312 69.652344 20.527344 69.683594 20.4375 C 70.828125 17.191406 71.71875 14.65625 72.605469 12.144531 C 72.648438 12.027344 72.726562 11.984375 72.847656 12.023438 L 73.242188 12.148438 C 73.347656 12.179688 73.394531 12.253906 73.375 12.363281 C 73.117188 14.078125 72.859375 15.777344 72.679688 16.953125 C 72.664062 17.0625 72.710938 17.136719 72.816406 17.167969 C 75.15625 17.890625 76.933594 18.257812 78.535156 19 C 81.199219 20.234375 83.679688 21.871094 86.351562 23.078125 C 88.902344 24.230469 91.585938 25.105469 94.246094 26.003906 C 96.453125 26.75 98.703125 27.359375 100.9375 28.027344 C 101.042969 28.058594 101.089844 28.128906 101.074219 28.238281 C 101.011719 28.75 100.949219 29.265625 100.886719 29.777344 C 100.871094 29.890625 100.808594 29.949219 100.691406 29.949219 C 100.644531 29.949219 100.601562 29.929688 100.566406 29.898438 C 98.195312 27.835938 95.898438 27.09375 93.660156 27.09375 C 89.800781 27.09375 86.101562 29.304688 82.457031 30.796875 C 82.433594 30.804688 82.410156 30.8125 82.382812 30.8125 C 82.296875 30.808594 82.238281 30.769531 82.203125 30.6875 C 80.285156 26.074219 75.355469 22.621094 71.046875 22.621094 C 70.4375 22.621094 69.839844 22.691406 69.25 22.839844 C 69.167969 22.863281 69.121094 22.914062 69.109375 23 C 69.09375 23.082031 69.125 23.148438 69.195312 23.191406 C 71.6875 24.800781 73.871094 26.203125 76.917969 28.167969 C 76.976562 28.203125 77.003906 28.257812 77.007812 28.324219 C 77.007812 28.394531 76.980469 28.449219 76.925781 28.488281 C 73.355469 31.097656 70.304688 33.320312 66.921875 35.792969 C 66.832031 35.855469 66.8125 35.9375 66.863281 36.035156 C 67.234375 36.773438 67.613281 38.1875 68.488281 38.632812 C 72.511719 40.691406 72.148438 43.992188 71.492188 47.511719 C 71.175781 49.21875 71.121094 51.003906 70.609375 52.648438 C 69.0625 57.628906 67.6875 62.699219 61.671875 64.460938 C 59.421875 65.117188 56.84375 74.113281 58.488281 75.53125 C 61.023438 77.71875 60.523438 79.976562 59.761719 82.585938 C 57.132812 91.582031 53.800781 100.46875 52.265625 109.652344 C 51.238281 115.796875 46.398438 122.902344 53.5625 128.746094 C 53.707031 128.863281 53.644531 129.234375 53.71875 130.003906 C 53.726562 130.097656 53.691406 130.164062 53.601562 130.199219 C 51.988281 130.90625 50.230469 131.671875 47.835938 132.710938 C 47.773438 132.734375 47.71875 132.734375 47.660156 132.703125 C 47.605469 132.671875 47.570312 132.625 47.5625 132.558594 C 46.460938 124.851562 45.472656 117.890625 44.480469 110.9375 C 44.464844 110.828125 44.402344 110.773438 44.289062 110.769531 C 43.902344 110.769531 43.515625 110.765625 43.128906 110.761719 L 43.125 110.761719 C 42.996094 110.761719 42.933594 110.824219 42.933594 110.953125 C 42.914062 115.402344 42.3125 119.949219 43.054688 124.265625 C 45.050781 135.894531 47.65625 147.421875 49.976562 158.996094 C 50.195312 160.078125 50.1875 161.214844 50.15625 162.324219 C 50.113281 163.894531 49.652344 165.511719 49.894531 167.023438 C 50.949219 173.578125 54.863281 179.832031 51.59375 186.832031 C 51.15625 187.773438 52.050781 189.289062 52.214844 190.558594 C 53.007812 196.664062 53.746094 202.78125 54.542969 208.886719 C 54.726562 210.289062 54.667969 211.929688 55.390625 213.023438 C 60.320312 220.480469 62.988281 228.476562 61.988281 237.519531 C 61.894531 238.332031 62.1875 239.246094 62.488281 240.039062 C 64.019531 244.089844 65.570312 248.132812 67.195312 252.144531 C 69.195312 257.082031 71.78125 261.882812 76.941406 263.867188 C 85.800781 267.269531 94.890625 270.089844 103.925781 273.027344 C 104.054688 273.070312 104.1875 273.089844 104.324219 273.085938 C 105.046875 273.085938 105.953125 272.613281 106.675781 272.273438 C 113 269.289062 119.179688 265.953125 125.648438 263.328125 C 130.695312 261.28125 136.191406 260.355469 141.316406 258.46875 C 148.339844 255.886719 156.308594 254.1875 161.777344 249.609375 C 165.933594 246.132812 170.164062 243.210938 174.5 240.09375 C 179.511719 236.488281 183.230469 230.558594 186.328125 224.980469 C 188.878906 220.402344 190.433594 214.953125 191.078125 209.71875 C 191.75 204.285156 194.632812 199.179688 193.199219 193.34375 C 192.414062 190.140625 193.058594 186.605469 192.796875 183.242188 C 192.492188 179.28125 192.144531 175.292969 191.367188 171.410156 C 190.753906 168.332031 189.042969 165.457031 188.542969 162.375 C 187.035156 153.109375 182.15625 146.117188 174.917969 140.464844 C 174.046875 139.785156 173.675781 138.425781 173.164062 137.339844 C 171.84375 134.539062 170.652344 131.675781 169.253906 128.917969 C 168.089844 126.621094 166.246094 124.574219 165.503906 122.171875 C 163.421875 115.425781 161.847656 108.523438 159.875 101.742188 C 159.097656 99.058594 157.84375 96.515625 156.710938 93.722656 C 156.679688 93.640625 156.617188 93.601562 156.53125 93.601562 C 156.488281 93.601562 156.445312 93.613281 156.414062 93.640625 C 153.867188 95.605469 152.5 96.632812 150.925781 96.632812 C 149.226562 96.632812 147.28125 95.433594 143.339844 92.925781 C 143.261719 92.878906 143.234375 92.808594 143.25 92.722656 C 143.269531 92.632812 143.320312 92.582031 143.410156 92.566406 C 145.082031 92.277344 146.527344 92.027344 147.902344 91.789062 C 147.980469 91.777344 148.035156 91.730469 148.054688 91.652344 C 149.824219 85.574219 147.628906 81.191406 143.132812 77.386719 C 141.234375 75.78125 140.035156 73.378906 138.375 71.460938 C 136.429688 69.210938 134.65625 65.855469 132.21875 65.222656 C 128.882812 64.347656 127.628906 62.546875 126.339844 59.722656 C 126.308594 59.660156 126.3125 59.597656 126.351562 59.539062 C 126.390625 59.476562 126.445312 59.449219 126.515625 59.449219 L 128.882812 59.449219 C 129.007812 59.449219 129.074219 59.382812 129.078125 59.257812 C 129.160156 54.855469 125.910156 53.742188 122.410156 52.394531 C 122.335938 52.363281 122.292969 52.308594 122.289062 52.222656 C 122.285156 52.140625 122.316406 52.078125 122.390625 52.039062 C 123.410156 51.5 124.210938 51.078125 125.890625 50.191406 C 125.949219 50.160156 125.984375 50.113281 125.992188 50.046875 C 126.003906 49.980469 125.984375 49.925781 125.9375 49.878906 C 122.808594 46.824219 120.074219 44.15625 117.363281 41.511719 C 117.304688 41.457031 117.289062 41.390625 117.3125 41.316406 C 117.335938 41.242188 117.386719 41.195312 117.460938 41.183594 C 118.429688 41.003906 119.550781 40.792969 120.683594 40.582031 C 120.757812 40.570312 120.808594 40.527344 120.832031 40.457031 C 120.859375 40.382812 120.84375 40.320312 120.792969 40.265625 C 119.019531 38.3125 117.007812 37.242188 115.03125 36.113281 C 113.664062 35.332031 111.847656 34.773438 111.097656 33.570312 C 108.03125 28.660156 102.710938 26.671875 98.476562 23.296875 C 95.121094 20.625 91.324219 18.40625 88.382812 15.351562 C 85.554688 12.414062 83.644531 8.609375 81.160156 5.308594 C 80.726562 4.730469 79.640625 4.257812 78.832031 4.257812 Z M 78.835938 4.257812 "/></g><path style=" stroke:none;fill-rule:nonzero;fill:#0f50aa;fill-opacity:1;" d="M 47.765625 56.378906 C 49.054688 56.582031 50.1875 57.175781 51.273438 58.207031 C 51.296875 58.226562 51.320312 58.25 51.339844 58.269531 L 50.527344 57.839844 L 47.765625 56.378906 M 46.726562 53.753906 C 44.933594 53.753906 42.953125 54.238281 40.757812 55.203125 C 40.683594 55.234375 40.648438 55.292969 40.644531 55.375 C 40.640625 55.453125 40.675781 55.515625 40.75 55.550781 L 57.628906 64.476562 C 57.710938 64.523438 57.785156 64.511719 57.851562 64.453125 C 57.921875 64.390625 57.9375 64.316406 57.902344 64.230469 C 55.019531 57.207031 51.519531 53.753906 46.730469 53.753906 Z M 46.726562 53.753906 "/><path style=" stroke:none;fill-rule:nonzero;fill:#0f50aa;fill-opacity:1;" d="M 52.019531 18.898438 L 51.996094 18.898438 C 50.769531 18.914062 49.40625 19.582031 48.417969 20.363281 C 48.078125 20.628906 48.453125 22.722656 48.914062 22.902344 C 49.714844 23.214844 50.542969 23.378906 51.402344 23.398438 C 51.871094 23.410156 52.324219 23.324219 52.761719 23.148438 C 53.863281 22.664062 54.550781 21.238281 55.417969 20.214844 C 54.28125 19.722656 53.144531 18.898438 52.019531 18.898438 Z M 55.4375 20.195312 L 55.417969 20.214844 C 55.445312 20.226562 55.472656 20.238281 55.5 20.25 L 55.4375 20.191406 Z M 55.4375 20.195312 "/><g clip-rule="nonzero" clip-path="url(#371f4ceb33)"><path style=" stroke:none;fill-rule:nonzero;fill:#0f50aa;fill-opacity:1;" d="M 40.617188 24.285156 L 39.414062 25.402344 C 40.289062 26.945312 41.214844 28.566406 42.480469 30.796875 C 42.519531 30.863281 42.578125 30.898438 42.65625 30.894531 C 42.734375 30.894531 42.789062 30.859375 42.824219 30.789062 C 43.742188 28.988281 44.761719 27.46875 44.515625 27.222656 C 43.375 26.082031 41.980469 25.203125 40.617188 24.285156 Z M 40.617188 24.285156 "/></g><g clip-rule="nonzero" clip-path="url(#581ec8db6d)"><path style=" stroke:none;fill-rule:evenodd;fill:#0f50aa;fill-opacity:1;" d="M 98.421875 215.230469 L 80.519531 207.152344 L 80.734375 197.109375 L 82.933594 195.367188 L 82.695312 141.007812 C 82.648438 139.070312 83.101562 137.351562 83.792969 135.75 C 84.488281 134.027344 85.492188 132.664062 87.070312 131.398438 C 88.625 130.105469 87.953125 129.890625 93.191406 128.554688 C 98.378906 127.214844 107.007812 125.542969 118.074219 123.535156 C 129.117188 121.359375 146.808594 117.988281 158.878906 116.097656 C 170.808594 114.210938 179.03125 113.253906 189.453125 112.394531 C 199.851562 111.558594 210.082031 110.960938 220.886719 110.863281 C 231.691406 110.648438 244.148438 110.769531 253.636719 111.316406 C 262.984375 111.773438 271.492188 112.679688 276.777344 114.136719 C 281.964844 115.523438 282.441406 117.246094 284.855469 120.042969 C 287.152344 122.839844 289.734375 122.480469 290.953125 130.96875 C 292.101562 139.453125 291.882812 156.90625 292.050781 170.695312 C 292.171875 184.464844 292.101562 198.328125 291.835938 213.03125 L 294.464844 216.523438 L 294.011719 231.820312 L 260.402344 232.894531 C 259.207031 235.644531 257.75 237.796875 256.027344 239.445312 C 254.257812 241.09375 252.5625 242.339844 249.933594 242.71875 C 247.183594 243.054688 242.710938 242.863281 240.105469 241.40625 C 237.476562 239.851562 235.613281 237.269531 234.417969 233.566406 L 185.078125 236.171875 L 164.785156 231.820312 C 162.65625 234.953125 160.695312 236.648438 158.449219 237.269531 C 156.15625 237.75 153.5 236.839844 151.683594 235.09375 C 149.867188 233.351562 148.625 230.554688 147.765625 226.800781 L 108.894531 217.191406 C 107.820312 219.34375 106.671875 220.679688 105.191406 221.109375 C 103.636719 221.492188 101.316406 220.75 100.171875 219.796875 C 98.996094 218.769531 98.449219 217.3125 98.421875 215.230469 Z M 98.421875 215.230469 "/></g><path style=" stroke:none;fill-rule:evenodd;fill:#ffffff;fill-opacity:1;" d="M 193.375 113.492188 C 179.84375 115.117188 166.265625 117.054688 151.996094 119.300781 C 137.605469 121.59375 118.625 124.796875 108.25 126.878906 C 98.019531 128.789062 94.3125 129.101562 90.585938 130.941406 C 86.710938 132.78125 85.132812 135.003906 85.492188 137.800781 C 100.71875 136.082031 115.828125 134.480469 131.722656 132.902344 C 147.574219 131.300781 163.398438 129.746094 179.941406 128.238281 C 180.824219 124.917969 182.425781 122.070312 184.648438 119.609375 C 186.894531 117.125 189.742188 115.117188 193.375 113.492188 Z M 193.375 113.492188 "/><path style=" stroke:none;fill-rule:evenodd;fill:#ffffff;fill-opacity:1;" d="M 182.472656 128.980469 C 182.710938 127.425781 183.476562 125.753906 184.859375 123.960938 C 186.199219 122.121094 187.96875 119.632812 190.550781 118.082031 C 193.011719 116.429688 194.996094 115.285156 199.921875 114.375 C 204.914062 113.5625 211.921875 112.988281 220 112.84375 C 228.054688 112.582031 239.289062 112.679688 247.515625 112.84375 C 255.570312 112.941406 262.765625 112.511719 268.261719 113.492188 C 273.617188 114.421875 276.964844 115.785156 280.046875 118.511719 C 283.15625 121.164062 285.378906 124.773438 286.8125 129.433594 C 270.703125 129.769531 254.375 129.914062 236.828125 129.867188 C 219.257812 129.816406 201.472656 129.433594 182.46875 128.980469 Z M 182.472656 128.980469 "/><path style=" stroke:none;fill-rule:evenodd;fill:#ffffff;fill-opacity:1;" d="M 182.902344 131.824219 L 183.117188 181.164062 L 289.207031 180.949219 L 288.5625 132.710938 L 182.90625 131.824219 Z M 182.902344 131.824219 "/><path style=" stroke:none;fill-rule:evenodd;fill:#ffffff;fill-opacity:1;" d="M 199.335938 192.746094 C 202.464844 192.746094 205.003906 195.285156 205.003906 198.414062 C 205.003906 201.539062 202.464844 204.078125 199.335938 204.078125 C 196.210938 204.078125 193.671875 201.539062 193.671875 198.414062 C 193.671875 195.285156 196.210938 192.746094 199.335938 192.746094 "/><path style=" stroke:none;fill-rule:evenodd;fill:#ffffff;fill-opacity:1;" d="M 212.09375 192.90625 C 215.21875 192.90625 217.757812 195.445312 217.757812 198.574219 C 217.757812 201.699219 215.21875 204.238281 212.09375 204.238281 C 208.964844 204.238281 206.425781 201.699219 206.425781 198.574219 C 206.425781 195.445312 208.964844 192.90625 212.09375 192.90625 "/><path style=" stroke:none;fill-rule:evenodd;fill:#ffffff;fill-opacity:1;" d="M 271.136719 192.125 C 274.039062 192.125 276.394531 194.480469 276.394531 197.382812 C 276.394531 200.285156 274.039062 202.640625 271.136719 202.640625 C 268.234375 202.640625 265.878906 200.285156 265.878906 197.382812 C 265.878906 194.480469 268.234375 192.125 271.136719 192.125 "/><path style=" stroke:none;fill-rule:evenodd;fill:#ffffff;fill-opacity:1;" d="M 282.609375 192.125 C 285.515625 192.125 287.871094 194.480469 287.871094 197.382812 C 287.871094 200.285156 285.515625 202.640625 282.609375 202.640625 C 279.707031 202.640625 277.351562 200.285156 277.351562 197.382812 C 277.351562 194.480469 279.707031 192.125 282.609375 192.125 "/><path style=" stroke:none;fill-rule:evenodd;fill:#ffffff;fill-opacity:1;" d="M 182.902344 183.578125 L 183.117188 190.558594 L 289.207031 190.511719 L 288.5625 183.699219 L 182.90625 183.578125 Z M 182.902344 183.578125 "/><path style=" stroke:none;fill-rule:evenodd;fill:#ffffff;fill-opacity:1;" d="M 182.902344 204.972656 L 183.117188 217.617188 L 289.207031 217.570312 L 288.5625 205.1875 L 182.90625 204.972656 Z M 182.902344 204.972656 "/><path style=" stroke:none;fill-rule:evenodd;fill:#ffffff;fill-opacity:1;" d="M 143.386719 134 L 143.386719 167.609375 L 161.507812 168.710938 L 161.507812 132.710938 Z M 143.386719 134 "/><path style=" stroke:none;fill-rule:evenodd;fill:#ffffff;fill-opacity:1;" d="M 123.09375 136.199219 L 123.09375 166.535156 L 140.328125 167.179688 L 140.328125 134.671875 Z M 123.09375 136.199219 "/><path style=" stroke:none;fill-rule:evenodd;fill:#ffffff;fill-opacity:1;" d="M 103.992188 138.519531 L 104.398438 165.699219 L 118.71875 165.867188 L 119.054688 136.964844 Z M 103.992188 138.519531 "/><path style=" stroke:none;fill-rule:evenodd;fill:#ffffff;fill-opacity:1;" d="M 85.300781 140.191406 L 85.300781 165.078125 L 99.738281 165.222656 L 99.738281 139.261719 Z M 85.300781 140.191406 "/><path style=" stroke:none;fill-rule:evenodd;fill:#ffffff;fill-opacity:1;" d="M 85.96875 167.847656 L 161.9375 171.339844 L 162.152344 184.007812 L 85.972656 177.886719 L 85.972656 167.847656 Z M 85.96875 167.847656 "/><path style=" stroke:none;fill-rule:evenodd;fill:#ffffff;fill-opacity:1;" d="M 85.96875 181.167969 L 85.96875 207.367188 L 96.464844 212.171875 C 95.792969 204.738281 95.792969 199.335938 96.464844 195.582031 C 97.109375 191.851562 98.878906 190.847656 100.382812 189.894531 C 101.867188 188.914062 103.5625 188.078125 105.1875 189.679688 C 106.742188 191.253906 108.726562 194.816406 109.5625 199.074219 C 110.257812 203.253906 110.257812 208.300781 109.5625 214.5625 L 147.761719 224.601562 C 146.496094 218.027344 146.304688 212.671875 147.09375 208.441406 C 147.929688 204.089844 150.488281 200.675781 152.566406 199.289062 C 154.503906 197.949219 157.445312 199.046875 159.09375 200.386719 C 160.742188 201.652344 161.769531 203.804688 162.367188 206.9375 L 162.367188 188.148438 C 136.910156 185.828125 111.453125 183.507812 85.964844 181.167969 Z M 85.96875 181.167969 "/><path style=" stroke:none;fill-rule:evenodd;fill:#ffffff;fill-opacity:1;" d="M 165.214844 132.257812 L 179.625 131.179688 L 179.625 231.820312 L 165.429688 228.089844 L 165.214844 132.261719 Z M 165.214844 132.257812 "/><path style=" stroke:none;fill-rule:evenodd;fill:#0f50aa;fill-opacity:1;" d="M 184.503906 134.167969 L 228.84375 134.167969 C 223.753906 135.125 220.335938 136.679688 218.589844 138.925781 C 216.84375 141.148438 221.125 145.835938 218.230469 147.363281 C 215.148438 148.824219 203.078125 145.835938 200.636719 147.722656 C 198.199219 149.613281 206.183594 155.15625 203.554688 158.359375 C 200.804688 161.539062 194.542969 164.074219 184.503906 166.417969 C 184.503906 155.683594 184.503906 144.925781 184.503906 134.167969 Z M 184.503906 134.167969 "/><path style=" stroke:none;fill-rule:evenodd;fill:#0f50aa;fill-opacity:1;" d="M 233.246094 115.859375 C 238.027344 116.289062 252.515625 115.117188 259.28125 116.214844 C 265.972656 117.269531 274.484375 121.402344 273.191406 122.074219 C 271.613281 122.621094 254.976562 119.707031 250.84375 119.875 C 246.777344 120.066406 253.972656 122.457031 249 123.171875 C 243.886719 123.769531 225.050781 124.726562 220.792969 123.914062 C 216.515625 123.074219 224.285156 119.800781 223.734375 118.414062 C 223.136719 116.980469 216.324219 116.214844 217.496094 115.476562 C 218.644531 114.613281 227.992188 113.609375 230.691406 113.660156 C 233.296875 113.730469 228.46875 115.355469 233.25 115.859375 Z M 233.246094 115.859375 "/><path style=" stroke:none;fill-rule:evenodd;fill:#0f50aa;fill-opacity:1;" d="M 117.070312 126.472656 C 124.289062 124.796875 140.996094 122.40625 151.15625 120.972656 C 161.292969 119.515625 173.652344 117.554688 177.546875 118.058594 C 181.253906 118.558594 178.003906 122.816406 173.890625 123.914062 C 169.707031 124.941406 157.609375 123.242188 152.996094 124.273438 C 148.335938 125.300781 151.515625 128.789062 146.398438 129.769531 C 141.164062 130.605469 127.539062 129.195312 122.207031 129.410156 C 116.878906 129.554688 117.257812 130.652344 114.871094 130.867188 C 112.429688 131.0625 107.53125 131.15625 107.914062 130.511719 C 108.296875 129.769531 109.777344 128.027344 117.070312 126.472656 Z M 117.070312 126.472656 "/><g style="fill:#0f50aa;fill-opacity:1;"><g transform="translate(174.490334, 278.545998)"><path style="stroke:none" d="M 2.1875 -30.015625 L 11.5 -30.015625 C 14.3125 -30.015625 16.550781 -29.410156 18.21875 -28.203125 C 19.894531 -27.003906 20.734375 -25.0625 20.734375 -22.375 C 20.734375 -19.363281 19.484375 -17.21875 16.984375 -15.9375 C 21.253906 -15.175781 23.390625 -12.648438 23.390625 -8.359375 C 23.390625 -5.835938 22.515625 -3.8125 20.765625 -2.28125 C 19.023438 -0.757812 16.625 0 13.5625 0 L 2.1875 0 Z M 9.015625 -18.265625 L 9.5625 -18.265625 C 11.09375 -18.265625 12.234375 -18.53125 12.984375 -19.0625 C 13.734375 -19.59375 14.109375 -20.460938 14.109375 -21.671875 C 14.109375 -23.710938 12.59375 -24.734375 9.5625 -24.734375 L 9.015625 -24.734375 Z M 9.015625 -5.28125 L 11.171875 -5.28125 C 14.515625 -5.28125 16.1875 -6.394531 16.1875 -8.625 C 16.1875 -9.957031 15.765625 -10.914062 14.921875 -11.5 C 14.085938 -12.082031 12.835938 -12.375 11.171875 -12.375 L 9.015625 -12.375 Z M 9.015625 -5.28125 "/></g></g><g style="fill:#0f50aa;fill-opacity:1;"><g transform="translate(200.890387, 278.545998)"><path style="stroke:none" d="M 8.25 -18.65625 L 8.25 -9.78125 C 8.25 -7.9375 8.53125 -6.625 9.09375 -5.84375 C 9.65625 -5.070312 10.601562 -4.6875 11.9375 -4.6875 C 13.269531 -4.6875 14.210938 -5.070312 14.765625 -5.84375 C 15.328125 -6.625 15.609375 -7.9375 15.609375 -9.78125 L 15.609375 -18.65625 L 22.046875 -18.65625 L 22.046875 -8.21875 C 22.046875 -5.113281 21.238281 -2.875 19.625 -1.5 C 18.007812 -0.132812 15.441406 0.546875 11.921875 0.546875 C 8.410156 0.546875 5.847656 -0.132812 4.234375 -1.5 C 2.617188 -2.875 1.8125 -5.113281 1.8125 -8.21875 L 1.8125 -18.65625 Z M 8.25 -18.65625 "/></g></g><g style="fill:#0f50aa;fill-opacity:1;"><g transform="translate(226.926815, 278.545998)"><path style="stroke:none" d="M 10.296875 -19.203125 C 11.359375 -19.203125 12.410156 -19.082031 13.453125 -18.84375 C 14.492188 -18.601562 15.269531 -18.359375 15.78125 -18.109375 L 16.546875 -17.75 L 14.4375 -13.53125 C 12.988281 -14.3125 11.609375 -14.703125 10.296875 -14.703125 C 9.566406 -14.703125 9.050781 -14.617188 8.75 -14.453125 C 8.445312 -14.296875 8.296875 -14 8.296875 -13.5625 C 8.296875 -13.46875 8.304688 -13.367188 8.328125 -13.265625 C 8.347656 -13.171875 8.394531 -13.082031 8.46875 -13 C 8.539062 -12.914062 8.609375 -12.84375 8.671875 -12.78125 C 8.734375 -12.71875 8.835938 -12.648438 8.984375 -12.578125 C 9.128906 -12.515625 9.242188 -12.460938 9.328125 -12.421875 C 9.410156 -12.390625 9.550781 -12.335938 9.75 -12.265625 C 9.945312 -12.191406 10.09375 -12.132812 10.1875 -12.09375 C 10.28125 -12.0625 10.441406 -12.007812 10.671875 -11.9375 C 10.898438 -11.863281 11.078125 -11.8125 11.203125 -11.78125 C 11.953125 -11.5625 12.601562 -11.316406 13.15625 -11.046875 C 13.71875 -10.785156 14.304688 -10.425781 14.921875 -9.96875 C 15.546875 -9.507812 16.023438 -8.925781 16.359375 -8.21875 C 16.703125 -7.519531 16.875 -6.71875 16.875 -5.8125 C 16.875 -1.570312 13.925781 0.546875 8.03125 0.546875 C 6.695312 0.546875 5.429688 0.34375 4.234375 -0.0625 C 3.035156 -0.476562 2.171875 -0.894531 1.640625 -1.3125 L 0.84375 -1.96875 L 3.453125 -6.359375 C 3.648438 -6.191406 3.90625 -5.992188 4.21875 -5.765625 C 4.53125 -5.535156 5.097656 -5.21875 5.921875 -4.8125 C 6.753906 -4.414062 7.472656 -4.21875 8.078125 -4.21875 C 9.410156 -4.21875 10.078125 -4.664062 10.078125 -5.5625 C 10.078125 -5.976562 9.90625 -6.300781 9.5625 -6.53125 C 9.226562 -6.757812 8.65625 -7.019531 7.84375 -7.3125 C 7.03125 -7.601562 6.390625 -7.867188 5.921875 -8.109375 C 4.765625 -8.710938 3.84375 -9.394531 3.15625 -10.15625 C 2.476562 -10.925781 2.140625 -11.941406 2.140625 -13.203125 C 2.140625 -15.097656 2.875 -16.570312 4.34375 -17.625 C 5.8125 -18.675781 7.796875 -19.203125 10.296875 -19.203125 Z M 10.296875 -19.203125 "/></g></g><g style="fill:#0f50aa;fill-opacity:1;"><g transform="translate(246.999671, 278.545998)"><path style="stroke:none" d="M 9.015625 -12.046875 L 9.015625 0 L 2.1875 0 L 2.1875 -30.015625 L 9.015625 -30.015625 L 9.015625 -18.046875 L 18.703125 -18.046875 L 18.703125 -30.015625 L 25.53125 -30.015625 L 25.53125 0 L 18.703125 0 L 18.703125 -12.046875 Z M 9.015625 -12.046875 "/></g></g><g style="fill:#0f50aa;fill-opacity:1;"><g transform="translate(276.890595, 278.545998)"><path style="stroke:none" d="M 8.25 -18.65625 L 8.25 -9.78125 C 8.25 -7.9375 8.53125 -6.625 9.09375 -5.84375 C 9.65625 -5.070312 10.601562 -4.6875 11.9375 -4.6875 C 13.269531 -4.6875 14.210938 -5.070312 14.765625 -5.84375 C 15.328125 -6.625 15.609375 -7.9375 15.609375 -9.78125 L 15.609375 -18.65625 L 22.046875 -18.65625 L 22.046875 -8.21875 C 22.046875 -5.113281 21.238281 -2.875 19.625 -1.5 C 18.007812 -0.132812 15.441406 0.546875 11.921875 0.546875 C 8.410156 0.546875 5.847656 -0.132812 4.234375 -1.5 C 2.617188 -2.875 1.8125 -5.113281 1.8125 -8.21875 L 1.8125 -18.65625 Z M 8.25 -18.65625 "/></g></g><g style="fill:#0f50aa;fill-opacity:1;"><g transform="translate(302.927023, 278.545998)"><path style="stroke:none" d="M 21.375 -16.328125 C 23.125 -14.410156 24 -12.070312 24 -9.3125 C 24 -6.550781 23.125 -4.21875 21.375 -2.3125 C 19.632812 -0.40625 17.421875 0.546875 14.734375 0.546875 C 12.253906 0.546875 10.21875 -0.335938 8.625 -2.109375 L 8.546875 -2.109375 L 8.546875 0 L 2.1875 0 L 2.1875 -31.28125 L 8.625 -31.28125 L 8.625 -16.875 C 10.21875 -18.425781 12.253906 -19.203125 14.734375 -19.203125 C 17.421875 -19.203125 19.632812 -18.242188 21.375 -16.328125 Z M 15.96875 -6.171875 C 16.769531 -6.984375 17.171875 -8.03125 17.171875 -9.3125 C 17.171875 -10.59375 16.75 -11.644531 15.90625 -12.46875 C 15.070312 -13.300781 14.035156 -13.71875 12.796875 -13.71875 C 11.585938 -13.71875 10.5625 -13.300781 9.71875 -12.46875 C 8.882812 -11.644531 8.46875 -10.59375 8.46875 -9.3125 C 8.46875 -8.050781 8.875 -7.007812 9.6875 -6.1875 C 10.5 -5.363281 11.535156 -4.953125 12.796875 -4.953125 C 14.109375 -4.953125 15.164062 -5.359375 15.96875 -6.171875 Z M 15.96875 -6.171875 "/></g></g><g style="fill:#0f50aa;fill-opacity:1;"><g transform="translate(329.951265, 262.795999)"><path style="stroke:none" d="M 5.40625 -18 L 5.40625 -3.59375 L 11.609375 -3.59375 L 11.609375 0 L 1.3125 0 L 1.3125 -18 Z M 5.40625 -18 "/></g></g><g style="fill:#0f50aa;fill-opacity:1;"><g transform="translate(344.455209, 262.795999)"><path style="stroke:none" d="M 17.6875 0 L 12.046875 0 L 5.40625 -7.640625 L 5.40625 0 L 1.3125 0 L 1.3125 -18 L 5.40625 -18 L 5.40625 -10.640625 L 11.578125 -18 L 16.5625 -18 L 9.3125 -9.46875 Z M 17.6875 0 "/></g></g></g></svg>